# xmcd
# 
# Track frame offsets:
#     150
#     16901
#     34340
#     50655
#     66218
#     82232
#     101501
#     114869
#     132620
#     149766
#     165601
#     183201
#     201418
#     219865
#     233365
#     248552
#     267677
#     284552
#     303959
#     319427
# 
# Disc length: 4490
# 
# Revision: 1
# Processed by: cddbd v1.5.2PL0 Copyright (c) Steve Scherf et al.
# Submitted via: fre:ac v1.0.17
# 
DISCID=2f118814
DTITLE=Various Artist - Kontor 66
DYEAR=0
DGENRE=
TTITLE0=Calvin Harris FEAT. Ellie Goulding - Outside
TTITLE1=Hardwell FEAT. Harrison - Sally
TTITLE2=Dimitri Vegas and Like Mike Vs Fedde Le Grand FEAT. Julian Perretta - Tales of You
TTITLE3=Mike Candys FEAT. Max C - Last Man On Eath
TTITLE4=R.I.O. - Thinking Of You
TTITLE5=Showtek FEAT. Mc Ambush - 90s By Nature
TTITLE6=Gestört Aber Geil and Koby Funk FEAT. Wincent Weiss - Unter Meiner Haut
TTITLE7=Heymen - If I Play Your Game (Alle Farben and Younotus Remix)
TTITLE8=Jerome, Lotus and Kray FEAT. Amanda - Gravity
TTITLE9=Jack Holidy - Yes!
TTITLE10=Bynon and Domend FEAT. Alice Berg - Golden Hearts (Dancing Edit)
TTITLE11=Jerome and Lotus FEAT. Karen Harding - More Than A Moment
TTITLE12=Blasterjaxx and Dbstf FEAT. Ryder - Beautiful World
TTITLE13=3Lau and Nom De Strip FEAT. Estelle - The Night
TTITLE14=Nicky Romero and Vicetone FEAT. When We Are Wild - Let Me Feel (Fedde Le Grand Remix)
TTITLE15=Blinders - Sirene
TTITLE16=Tom Staar- Ogre
TTITLE17=Julian Calor - Evolve
TTITLE18=Paris Blohm FEAT. Charles - Demons
TTITLE19=Headhunterz - Once Again
EXTD=CD 1 from 3Barcode: 4250117647452
EXTT0=
EXTT1=
EXTT2=
EXTT3=
EXTT4=
EXTT5=
EXTT6=
EXTT7=
EXTT8=
EXTT9=
EXTT10=
EXTT11=
EXTT12=
EXTT13=
EXTT14=
EXTT15=
EXTT16=
EXTT17=
EXTT18=
EXTT19=
PLAYORDER=
